<svg width="28" height="28" viewBox="0 0 28 28" fill="none" xmlns="http://www.w3.org/2000/svg">
<path fill-rule="evenodd" clip-rule="evenodd" d="M16.2517 16.3574C16.8489 15.7323 17.1844 14.8844 17.1844 14.0004C17.1844 13.1163 16.8489 12.2685 16.2517 11.6433C15.6545 11.0182 14.8446 10.667 14.0001 10.667C13.1555 10.667 12.3456 11.0182 11.7484 11.6433C11.1513 12.2685 10.8158 13.1163 10.8158 14.0004C10.8158 14.8844 11.1513 15.7323 11.7484 16.3574C12.3456 16.9825 13.1555 17.3337 14.0001 17.3337C14.8446 17.3337 15.6545 16.9825 16.2517 16.3574ZM15.1259 15.1789C15.4245 14.8663 15.5922 14.4424 15.5922 14.0004C15.5922 13.5583 15.4245 13.1344 15.1259 12.8218C14.8273 12.5093 14.4223 12.3337 14.0001 12.3337C13.5778 12.3337 13.1728 12.5093 12.8742 12.8218C12.5757 13.1344 12.4079 13.5583 12.4079 14.0004C12.4079 14.4424 12.5757 14.8663 12.8742 15.1789C13.1728 15.4914 13.5778 15.667 14.0001 15.667C14.4223 15.667 14.8273 15.4914 15.1259 15.1789Z" fill="#747474"/>
<path fill-rule="evenodd" clip-rule="evenodd" d="M23.0625 13.3263C21.7951 9.35893 18.2164 6.5 14.0007 6.5C9.78414 6.5 6.20612 9.35893 4.93884 13.3263C4.79903 13.7639 4.79903 14.2361 4.93884 14.6737C6.20612 18.6411 9.78414 21.5 14.0007 21.5C18.2172 21.5 21.7952 18.6411 23.0625 14.6737C23.2023 14.2361 23.2023 13.7639 23.0625 13.3263ZM6.68944 14.804C7.91153 17.7634 10.7266 19.8333 14.0007 19.8333C17.2747 19.8333 20.0898 17.7634 21.3119 14.804C21.5241 14.29 21.5241 13.71 21.3119 13.196C20.0898 10.2366 17.2747 8.16667 14.0007 8.16667C10.7266 8.16667 7.91153 10.2366 6.68944 13.196C6.47717 13.71 6.47717 14.29 6.68944 14.804Z" fill="#747474"/>
</svg>
