<svg width="20" height="20" viewBox="0 0 20 20" fill="none" xmlns="http://www.w3.org/2000/svg">
<path d="M4.09676 2.81269C4.01095 2.73304 3.89843 2.68838 3.78135 2.68751C3.66427 2.68664 3.55111 2.72962 3.46412 2.80799C3.37713 2.88635 3.32262 2.99444 3.31131 3.11097C3.3 3.22751 3.33271 3.34406 3.40301 3.43769L5.03426 5.23456C2.12176 6.9455 0.875667 9.68769 0.821761 9.81034C0.795052 9.87034 0.78125 9.93529 0.78125 10.001C0.78125 10.0666 0.795052 10.1316 0.821761 10.1916C0.848323 10.2517 1.49832 11.6932 2.94989 13.1447C4.29676 14.49 6.61082 16.0939 9.99989 16.0939C11.4165 16.1025 12.8179 15.8026 14.1069 15.215L15.9038 17.1908C15.9875 17.2828 16.1043 17.3378 16.2286 17.3436C16.3528 17.3495 16.4743 17.3058 16.5663 17.2221C16.6583 17.1384 16.7133 17.0215 16.7191 16.8973C16.725 16.773 16.6813 16.6516 16.5975 16.5596L4.09676 2.81269ZM7.8952 8.38456L11.4108 12.2533C10.883 12.5831 10.2561 12.7171 9.63957 12.6319C9.02303 12.5467 8.456 12.2477 8.03742 11.7871C7.61884 11.3264 7.3753 10.7335 7.34931 10.1116C7.32332 9.48975 7.51652 8.87851 7.8952 8.38456ZM9.99989 15.1564C7.54832 15.1564 5.4077 14.2642 3.6366 12.5057C2.89399 11.768 2.2657 10.9235 1.77254 10.0002C2.1077 9.35956 3.34285 7.25175 5.67879 5.94472L7.25692 7.67987C6.69505 8.34567 6.39417 9.1929 6.41025 10.0639C6.42633 10.935 6.75827 11.7705 7.34432 12.4151C7.93037 13.0597 8.73062 13.4695 9.5962 13.5682C10.4618 13.6669 11.3338 13.4479 12.0499 12.9517L13.4413 14.483C12.3504 14.9344 11.1804 15.1633 9.99989 15.1564ZM10.4999 7.39081C10.3777 7.3675 10.2699 7.29662 10.2 7.19377C10.1301 7.09092 10.1039 6.96452 10.1272 6.84237C10.1505 6.72023 10.2214 6.61235 10.3243 6.54246C10.4271 6.47257 10.5535 6.44641 10.6757 6.46972C11.439 6.618 12.1339 7.00898 12.6569 7.58436C13.1799 8.15975 13.503 8.88874 13.578 9.66269C13.5837 9.72399 13.5773 9.78581 13.5591 9.84463C13.5409 9.90345 13.5113 9.9581 13.472 10.0055C13.4326 10.0528 13.3844 10.092 13.3299 10.1207C13.2755 10.1494 13.2159 10.1672 13.1546 10.1728H13.1108C12.9936 10.1733 12.8804 10.1299 12.7937 10.0511C12.7069 9.97226 12.6528 9.86379 12.6421 9.74706C12.5864 9.176 12.3478 8.63818 11.9618 8.21363C11.5758 7.78909 11.0631 7.5005 10.4999 7.39081ZM19.178 10.1916C19.146 10.2635 18.3679 11.9885 16.6108 13.5603C16.5652 13.6031 16.5116 13.6362 16.453 13.6579C16.3944 13.6796 16.3321 13.6894 16.2697 13.6866C16.2073 13.6839 16.1461 13.6687 16.0896 13.642C16.0332 13.6152 15.9826 13.5775 15.941 13.5309C15.8993 13.4844 15.8674 13.43 15.847 13.3709C15.8267 13.3118 15.8184 13.2493 15.8226 13.187C15.8268 13.1246 15.8434 13.0638 15.8714 13.008C15.8994 12.9521 15.9383 12.9025 15.9858 12.8619C16.894 12.0459 17.6526 11.0774 18.2272 10.0002C17.734 9.07695 17.1057 8.2325 16.3632 7.49472C14.5921 5.73612 12.4514 4.84394 9.99989 4.84394C9.48456 4.84332 8.97007 4.88513 8.4616 4.96894C8.40038 4.98048 8.33747 4.9797 8.27656 4.96664C8.21564 4.95359 8.15794 4.92852 8.10682 4.89291C8.0557 4.8573 8.01219 4.81185 7.97884 4.75923C7.94549 4.70661 7.92297 4.64787 7.91258 4.58644C7.9022 4.52501 7.90416 4.46213 7.91836 4.40147C7.93256 4.34081 7.95871 4.28358 7.99528 4.23315C8.03185 4.18271 8.0781 4.14007 8.13134 4.10771C8.18459 4.07536 8.24374 4.05394 8.30535 4.04472C8.86539 3.95175 9.43219 3.9055 9.99989 3.90644C13.3889 3.90644 15.703 5.51112 17.0499 6.85644C18.5014 8.308 19.1514 9.74706 19.178 9.81034C19.2047 9.87034 19.2185 9.93529 19.2185 10.001C19.2185 10.0666 19.2047 10.1316 19.178 10.1916Z" fill="#747474"/>
</svg>
