<svg width="16" height="16" viewBox="0 0 16 16" fill="none" xmlns="http://www.w3.org/2000/svg">
<path d="M14.1139 10.2665L10.1739 3.69984C9.65393 2.83318 8.86727 2.33984 8.0006 2.33984C7.13393 2.33984 6.34727 2.83318 5.82727 3.69318L1.88727 10.2665C1.59393 10.7532 1.44727 11.2598 1.44727 11.7398C1.44727 12.1198 1.5406 12.4932 1.72727 12.8198C2.15393 13.5665 2.9806 13.9998 4.0006 13.9998H12.0006C13.0206 13.9998 13.8473 13.5665 14.2739 12.8198C14.4606 12.4932 14.5539 12.1398 14.5539 11.7665C14.5606 11.2732 14.4139 10.7598 14.1139 10.2665V10.2665ZM8.0006 5.63318C8.56727 5.63318 9.03393 6.09984 9.03393 6.66651C9.03393 7.23318 8.57393 7.69984 8.0006 7.69984C7.43393 7.69984 6.96727 7.23318 6.96727 6.66651C6.96727 6.09318 7.42727 5.63318 8.0006 5.63318ZM9.12727 11.2732C9.10727 11.2998 8.59393 11.8865 7.74727 11.8865H7.64727C7.30727 11.8665 7.02727 11.7198 6.8606 11.4665C6.65393 11.1532 6.6206 10.7265 6.7806 10.2532L7.05393 9.43984C7.20727 8.98651 7.0606 8.91318 6.9806 8.87318L6.88727 8.85984C6.7206 8.85984 6.48727 8.95984 6.41393 8.99984C6.34727 9.03318 6.2606 9.01984 6.20727 8.95318C6.1606 8.88651 6.1606 8.79984 6.21393 8.73984C6.23393 8.71318 6.79393 8.07984 7.69393 8.13318C8.03393 8.15318 8.31393 8.29984 8.4806 8.55318C8.69393 8.86651 8.7206 9.29318 8.5606 9.77318L8.28727 10.5865C8.13393 11.0398 8.2806 11.1132 8.3606 11.1532L8.45393 11.1665C8.6206 11.1665 8.85393 11.0665 8.92727 11.0332C9.0006 10.9932 9.0806 11.0132 9.13393 11.0798C9.1806 11.1265 9.1806 11.2132 9.12727 11.2732V11.2732Z" fill="#F5C044"/>
</svg>
